<?xml version="1.0" encoding="UTF-8" standalone="no"?>
<!-- Created with Inkscape (http://www.inkscape.org/) -->

<svg
   width="210mm"
   height="297mm"
   viewBox="0 0 210 297"
   version="1.1"
   id="svg5"
   inkscape:version="1.1.1 (3bf5ae0d25, 2021-09-20)"
   sodipodi:docname="plus.svg"
   xmlns:inkscape="http://www.inkscape.org/namespaces/inkscape"
   xmlns:sodipodi="http://sodipodi.sourceforge.net/DTD/sodipodi-0.dtd"
   xmlns="http://www.w3.org/2000/svg"
   xmlns:svg="http://www.w3.org/2000/svg">
  <sodipodi:namedview
     id="namedview7"
     pagecolor="#505050"
     bordercolor="#eeeeee"
     borderopacity="1"
     inkscape:pageshadow="0"
     inkscape:pageopacity="0"
     inkscape:pagecheckerboard="0"
     inkscape:document-units="mm"
     showgrid="false"
     inkscape:snap-midpoints="true"
     inkscape:snap-smooth-nodes="true"
     inkscape:snap-intersection-paths="true"
     inkscape:object-paths="true"
     inkscape:snap-object-midpoints="true"
     inkscape:zoom="0.74118967"
     inkscape:cx="302.21684"
     inkscape:cy="447.25394"
     inkscape:window-width="1920"
     inkscape:window-height="1017"
     inkscape:window-x="-8"
     inkscape:window-y="-8"
     inkscape:window-maximized="1"
     inkscape:current-layer="layer1" />
  <defs
     id="defs2" />
  <g
     inkscape:label="Warstwa 1"
     inkscape:groupmode="layer"
     id="layer1">
    <path
       id="rect1338"
       style="fill:#ffffff;fill-opacity:0.990942;fill-rule:evenodd;stroke-width:1.48167;stroke-linecap:round;paint-order:stroke markers fill"
       d="m 107.09156,46.584944 c -8.404891,0 -15.171689,6.766282 -15.171689,15.171169 V 120.47759 H 33.198392 c -8.404886,0 -15.171167,6.7668 -15.171167,15.17169 0,8.40488 6.766281,15.17116 15.171167,15.17116 h 58.721479 v 58.72148 c 0,8.40489 6.766798,15.17117 15.171689,15.17117 8.40488,0 15.17116,-6.76628 15.17116,-15.17117 v -58.72148 h 58.72148 c 8.40489,0 15.17168,-6.76628 15.17168,-15.17116 0,-8.40489 -6.76679,-15.17169 -15.17168,-15.17169 H 122.26272 V 61.756113 c 0,-8.404887 -6.76628,-15.171169 -15.17116,-15.171169 z" />
  </g>
</svg>
