<?xml version="1.0" encoding="UTF-8" standalone="no"?>
<!-- Created with Inkscape (http://www.inkscape.org/) -->

<svg
   width="136.66454mm"
   height="136.66452mm"
   viewBox="0 0 136.66454 136.66452"
   version="1.1"
   id="svg5"
   inkscape:version="1.1.1 (3bf5ae0d25, 2021-09-20)"
   sodipodi:docname="quadDone.svg"
   xmlns:inkscape="http://www.inkscape.org/namespaces/inkscape"
   xmlns:sodipodi="http://sodipodi.sourceforge.net/DTD/sodipodi-0.dtd"
   xmlns="http://www.w3.org/2000/svg"
   xmlns:svg="http://www.w3.org/2000/svg">
  <sodipodi:namedview
     id="namedview7"
     pagecolor="#505050"
     bordercolor="#eeeeee"
     borderopacity="1"
     inkscape:pageshadow="0"
     inkscape:pageopacity="0"
     inkscape:pagecheckerboard="0"
     inkscape:document-units="mm"
     showgrid="false"
     inkscape:snap-midpoints="true"
     inkscape:snap-smooth-nodes="true"
     inkscape:snap-intersection-paths="true"
     inkscape:object-paths="true"
     inkscape:snap-object-midpoints="true"
     inkscape:zoom="0.18529742"
     inkscape:cx="145.71169"
     inkscape:cy="-1065.854"
     inkscape:window-width="1920"
     inkscape:window-height="1009"
     inkscape:window-x="1912"
     inkscape:window-y="-8"
     inkscape:window-maximized="1"
     inkscape:current-layer="layer1"
     fit-margin-top="0"
     fit-margin-left="0"
     fit-margin-right="0"
     fit-margin-bottom="0" />
  <defs
     id="defs2" />
  <g
     inkscape:label="Warstwa 1"
     inkscape:groupmode="layer"
     id="layer1"
     transform="translate(-38.759391,-84.451436)">
    <path
       id="rect844"
       style="fill:#26a63e;fill-opacity:0.992157;fill-rule:evenodd;stroke-width:0.587235;stroke-linecap:round;paint-order:stroke markers fill"
       d="m 57.67865,84.451436 c -10.481389,0 -18.919259,8.437872 -18.919259,18.919254 v 98.82601 c 0,10.48139 8.43787,18.91926 18.919259,18.91926 h 98.82601 c 10.48138,0 18.91926,-8.43787 18.91926,-18.91926 v -98.82601 c 0,-10.481382 -8.43788,-18.919254 -18.91926,-18.919254 z m 15.746325,21.774894 h 67.333355 c 7.14132,0 12.89017,5.74937 12.89017,12.89069 v 67.33336 c 0,7.14132 -5.74885,12.89016 -12.89017,12.89016 H 73.424975 c -7.141321,0 -12.890685,-5.74884 -12.890685,-12.89016 v -67.33336 c 0,-7.14132 5.749364,-12.89069 12.890685,-12.89069 z" />
    <rect
       style="fill:#26a63e;fill-opacity:0.992157;fill-rule:evenodd;stroke-width:0.580001;stroke-linecap:round;paint-order:stroke markers fill"
       id="rect1599"
       width="67.110664"
       height="67.110664"
       x="73.536324"
       y="119.22836"
       ry="13.207941" />
  </g>
</svg>
